HIERARCHY
ROOT Hips
{
	OFFSET 0.00000 0.00000 0.00000
	CHANNELS 6 Xposition Yposition Zposition Yrotation Zrotation Xrotation 
	JOINT Lumbar
	{
		OFFSET 0 0 0
		CHANNELS 3 Zrotation Xrotation Yrotation
		JOINT Neck
		{
			OFFSET 0.00 0.2701 0.00
			CHANNELS 3 Zrotation Xrotation Yrotation
			End Site
			{
				OFFSET 0.00 0.1379 0.00
			}
		}
		JOINT RightShoulder
		{
			OFFSET 0.0119 0.2289 0.1181
			CHANNELS 3 Zrotation Xrotation Yrotation
			JOINT RightElbow
			{
				OFFSET 0.00 -0.1475 0.00
				CHANNELS 2 Zrotation Yrotation
				JOINT RightWrist
				{
					OFFSET 0.00 -0.1605 0.00
					CHANNELS 2 Zrotation Xrotation
					End Site
					{
						OFFSET 0.0040 -0.1068 0.0006
					}
				}
			}
		}
		JOINT LeftShoulder
		{
			OFFSET 0.0119 0.2289 -0.1181
			CHANNELS 3 Zrotation Xrotation Yrotation
			JOINT LeftElbow
			{
				OFFSET 0.00 -0.1475 0.00
				CHANNELS 2 Zrotation Yrotation
				JOINT LeftWrist
				{
					OFFSET 0.00 -0.1605 0.00
					CHANNELS 2 Zrotation Xrotation
					End Site
					{
						OFFSET 0.0040 -0.1068 -0.0006
					}
				}
			}
		}
	}
	JOINT RightHip
	{
		OFFSET 0.0316 -0.0424 0.0458
		CHANNELS 3 Zrotation Xrotation Yrotation
		JOINT RightKnee
		{
			OFFSET 0.00 -0.2438 0.00
			CHANNELS 1 Zrotation
			JOINT RightAnkle
			{
				OFFSET 0.00 -0.2449 0.00
				CHANNELS 3 Zrotation Xrotation Yrotation
				End Site
				{
					OFFSET 0.1237 -0.0542 0.0051
				}
			}
		}
	}
	JOINT LeftHip
	{
		OFFSET 0.0316 -0.0424 -0.0458
		CHANNELS 3 Zrotation Xrotation Yrotation
		JOINT LeftKnee
		{
			OFFSET 0.00 -0.2438 0.00
			CHANNELS 1 Zrotation
			JOINT LeftAnkle
			{
				OFFSET 0.00 -0.2449 0.00
				CHANNELS 3 Zrotation Xrotation Yrotation
				End Site
				{
					OFFSET 0.1237 -0.0542 -0.0051
				}
			}
		}
	}
}
MOTION
Frames: 11
Frame Time: 0.02
3e-05 -1e-05 2e-05 -539.08081 -36.14274 -2.74367 43.98202 2.82835 -3.39054 -8.63367 -2.27546 -0.3912 -64.4005 -80.22969 -90.01174 10.12037 76.45947 -3.70716 5.08229 78.79059 97.90287 -64.16898 5.34772 -97.77955 11.00569 -0.54939 39.50641 -2.91149 -1.8968 -22.13738 -6.95584 -4.04082 -2.74184 43.7239 9.17799 2.85981 -27.65606 -6.6745 3.47102 2.46376
9e-05 -1e-05 3e-05 -539.07061 -36.1424 -2.74461 43.97516 2.82437 -3.38592 -8.62732 -2.27551 -0.39128 -64.40049 -80.22501 -90.01172 10.11062 76.45155 -3.6147 5.08869 79.03518 97.88394 -64.16899 5.34645 -97.84841 11.01852 -0.57687 39.5115 -2.93527 -2.01841 -22.14219 -6.94902 -4.02414 -2.73399 43.73318 9.16191 2.7944 -27.65761 -6.67636 3.47796 2.46748
0.00014 -1e-05 4e-05 -539.06043 -36.14204 -2.74553 43.96829 2.82039 -3.38132 -8.62099 -2.27556 -0.39137 -64.40048 -80.22037 -90.0117 10.10089 76.44366 -3.52246 5.09508 79.27932 97.86507 -64.169 5.34519 -97.9171 11.03133 -0.60432 39.51657 -2.95898 -2.13967 -22.14699 -6.94221 -4.0075 -2.72616 43.74242 9.14586 2.72908 -27.65915 -6.67822 3.48488 2.47119
0.0002 -1e-05 4e-05 -539.05027 -36.14171 -2.74646 43.96146 2.81642 -3.37671 -8.61466 -2.27562 -0.39146 -64.40047 -80.21571 -90.01168 10.09116 76.43576 -3.43028 5.10146 79.52321 97.8462 -64.16901 5.34393 -97.98576 11.04412 -0.63172 39.52165 -2.98269 -2.2609 -22.15179 -6.93542 -3.99087 -2.71833 43.75169 9.12983 2.66385 -27.6607 -6.68007 3.4918 2.47489
0.00025 -1e-05 5e-05 -539.04007 -36.14136 -2.74739 43.9546 2.81243 -3.37209 -8.60831 -2.27567 -0.39155 -64.40045 -80.21102 -90.01167 10.08142 76.42785 -3.33791 5.10784 79.7674 97.82729 -64.16901 5.34267 -98.05455 11.05693 -0.65914 39.52674 -3.00647 -2.38247 -22.15661 -6.9286 -3.97421 -2.71049 43.76095 9.11378 2.59857 -27.66225 -6.68194 3.49874 2.47861
0.00031 -1e-05 6e-05 -539.02992 -36.14098 -2.74831 43.94771 2.80846 -3.36752 -8.60202 -2.27572 -0.39164 -64.40044 -80.20648 -90.01165 10.07172 76.41999 -3.24593 5.11423 80.01141 97.80849 -64.16902 5.34142 -98.12302 11.06974 -0.68666 39.53175 -3.03006 -2.50308 -22.16137 -6.92182 -3.95762 -2.70269 43.77013 9.0977 2.53316 -27.66377 -6.68379 3.50564 2.48231
0.00037 -1e-05 7e-05 -539.01971 -36.14073 -2.74926 43.94096 2.80448 -3.36285 -8.59562 -2.27578 -0.39173 -64.40043 -80.20163 -90.01163 10.06193 76.41202 -3.15328 5.12061 80.25555 97.78948 -64.16903 5.34015 -98.19209 11.08253 -0.71394 39.53699 -3.05399 -2.62546 -22.16624 -6.91499 -3.94091 -2.69481 43.77956 9.08172 2.46811 -27.66535 -6.68565 3.51259 2.48602
0.00042 -1e-05 8e-05 -539.00953 -36.14023 -2.75017 43.93395 2.8005 -3.35828 -8.58933 -2.27583 -0.39182 -64.40042 -80.19707 -90.01161 10.05223 76.40416 -3.06126 5.127 80.49951 97.77067 -64.16904 5.33889 -98.26057 11.09534 -0.74144 39.54185 -3.07762 -2.74629 -22.17099 -6.9082 -3.92431 -2.687 43.78861 9.06564 2.40269 -27.66686 -6.68751 3.51951 2.48973
0.00048 -1e-05 9e-05 -538.99949 -36.13996 -2.75107 43.92716 2.79654 -3.35379 -8.58313 -2.27588 -0.39191 -64.40041 -80.19287 -90.0116 10.0426 76.39642 -2.9699 5.13337 80.74366 97.7521 -64.16904 5.33765 -98.32852 11.10816 -0.76925 39.54691 -3.10084 -2.86494 -22.1757 -6.90148 -3.90784 -2.67929 43.79781 9.04945 2.33692 -27.66837 -6.68935 3.52636 2.49341
0.00053 -1e-05 0.0001 -538.98895 -36.13999 -2.75212 43.92073 2.79252 -3.3487 -8.5763 -2.27596 -0.39199 -64.40039 -80.18661 -90.01158 10.03248 76.38794 -2.87441 5.13979 80.98796 97.73213 -64.16905 5.33632 -98.40007 11.1209 -0.79538 39.55281 -3.12628 -2.99527 -22.18096 -6.89438 -3.8906 -2.67103 43.80798 9.03394 2.27344 -27.67011 -6.69125 3.53352 2.49721
0.00058 -1e-05 0.00011 -538.97925 -36.13834 -2.75281 43.91249 2.7886 -3.345 -8.57085 -2.27597 -0.3921 -64.40038 -80.18467 -90.01156 10.02343 76.38104 -2.78784 5.14611 81.23111 97.71513 -64.16906 5.33518 -98.46366 11.1338 -0.82498 39.55565 -3.14712 -3.10149 -22.18485 -6.88809 -3.87497 -2.66391 43.8149 9.01695 2.20497 -27.67125 -6.69306 3.54008 2.50077
